<svg width="95" height="98" viewBox="0 0 95 98" fill="none" xmlns="http://www.w3.org/2000/svg">
<path d="M94.8917 48.7198C94.8917 73.3252 77.1275 93.6665 54.0521 96.9683C51.8937 97.2769 49.6862 97.4368 47.4459 97.4368C44.8586 97.4368 42.3204 97.2236 39.8451 96.814C17.256 93.0801 0 72.9661 0 48.717C0 21.8113 21.2422 0 47.4459 0C73.6495 0 94.8917 21.8113 94.8917 48.717V48.7198Z" fill="#E71F3D"/>
<path d="M54.0521 39.1173V49.7297H66.8384L64.8139 64.0284H54.0521V96.9683C51.8937 97.2769 49.6862 97.4368 47.4459 97.4368C44.8585 97.4368 42.3204 97.2236 39.8451 96.814V64.0284H28.0533V49.7297H39.8451V36.7468C39.8451 28.6899 46.2055 22.1564 54.0548 22.1564V22.1648C54.0767 22.1648 54.0985 22.1564 54.1204 22.1564H66.8411V34.5194H58.53C56.0575 34.5194 54.0548 36.5757 54.0548 39.1145L54.0521 39.1173Z" fill="white"/>
</svg>
