<svg width="96" height="98" viewBox="0 0 96 98" fill="none" xmlns="http://www.w3.org/2000/svg">
<path d="M95.249 48.7198C95.249 73.3252 77.4848 93.6665 54.4094 96.9683C52.251 97.2769 50.0435 97.4368 47.8032 97.4368C45.2159 97.4368 42.6777 97.2236 40.2024 96.814C17.6133 93.0801 0.3573 72.9661 0.3573 48.717C0.3573 21.8113 21.5995 0 47.8032 0C74.0068 0 95.249 21.8113 95.249 48.717V48.7198Z" fill="#E71F3D"/>
<path d="M62.6605 19.4744H32.9433C24.7333 19.4744 18.056 26.3306 18.056 34.7606V62.6762C18.056 71.1061 24.7333 77.9623 32.9433 77.9623H62.6605C70.8704 77.9623 77.5477 71.1061 77.5477 62.6762V34.7606C77.5477 26.3306 70.8704 19.4744 62.6605 19.4744ZM23.3071 34.7606C23.3071 29.3042 27.6293 24.8662 32.9433 24.8662H62.6605C67.9744 24.8662 72.2966 29.3042 72.2966 34.7606V62.6762C72.2966 68.1325 67.9744 72.5705 62.6605 72.5705H32.9433C27.6293 72.5705 23.3071 68.1325 23.3071 62.6762V34.7606Z" fill="white"/>
<path d="M47.8007 62.9399C55.4369 62.9399 61.6497 56.5606 61.6497 48.7198C61.6497 40.879 55.4369 34.4997 47.8007 34.4997C40.1644 34.4997 33.9515 40.879 33.9515 48.7198C33.9515 56.5606 40.1644 62.9399 47.8007 62.9399ZM47.8007 39.8943C52.5409 39.8943 56.3959 43.8526 56.3959 48.7198C56.3959 53.587 52.5409 57.5453 47.8007 57.5453C43.0604 57.5453 39.2054 53.587 39.2054 48.7198C39.2054 43.8526 43.0604 39.8943 47.8007 39.8943Z" fill="white"/>
<path d="M62.9338 36.7944C64.9911 36.7944 66.6659 35.0748 66.6659 32.9624C66.6659 30.85 64.9911 29.1303 62.9338 29.1303C60.8765 29.1303 59.2018 30.85 59.2018 32.9624C59.2018 35.0748 60.8765 36.7944 62.9338 36.7944Z" fill="white"/>
</svg>
