<svg width="95" height="98" viewBox="0 0 95 98" fill="none" xmlns="http://www.w3.org/2000/svg">
<path d="M94.8916 48.7198C94.8916 73.3252 77.1274 93.6665 54.052 96.9683C51.8937 97.2769 49.6861 97.4368 47.4457 97.4368C44.8584 97.4368 42.3203 97.2236 39.8451 96.814C17.256 93.0801 0 72.9661 0 48.717C0 21.8113 21.2421 0 47.4457 0C73.6494 0 94.8916 21.8113 94.8916 48.717V48.7198Z" fill="#E71F3D"/>
<path d="M75.4908 30.8724C74.1739 32.2386 72.3488 33.083 70.327 33.083C70.0702 33.083 69.8135 33.0689 69.5649 33.0409C71.6741 31.742 73.3024 29.7082 74.1138 27.2816C74.1138 27.2816 74.1165 27.2816 74.1165 27.2788C74.2285 26.9534 74.3241 26.6251 74.4006 26.2857C72.7313 28.1176 70.45 29.3575 67.89 29.6521C67.4966 29.6998 67.0977 29.7222 66.6934 29.7222C66.5649 29.7222 66.442 29.7194 66.319 29.711C65.4529 28.7768 64.4203 28.0054 63.2756 27.4387C61.9997 26.7991 60.5734 26.4232 59.068 26.3755C58.9451 26.3671 58.8222 26.3643 58.6938 26.3643C57.4179 26.3643 56.1939 26.5971 55.0628 27.0263C54.7732 27.1357 54.4918 27.2535 54.2158 27.391C50.6313 29.1163 48.1505 32.8557 48.1505 37.1899C48.1505 38.0792 48.2571 38.9433 48.4511 39.768C47.3527 39.7231 46.2654 39.6137 45.1999 39.451C44.8584 39.3949 44.5168 39.336 44.178 39.2687C41.4596 38.7497 38.8668 37.8576 36.4571 36.6457C34.3015 35.5629 32.2907 34.2275 30.4629 32.6734C28.9247 31.3717 27.5177 29.9186 26.2609 28.3308C26.2063 28.2634 26.1516 28.1933 26.0997 28.126C26.0259 28.241 25.9577 28.356 25.8975 28.4767C25.0178 30.056 24.5206 31.8823 24.5206 33.8292C24.5206 33.8881 24.5205 33.9526 24.5232 34.0115C24.5451 35.4703 24.8456 36.8589 25.3838 38.1213C25.6133 38.6824 25.8921 39.2126 26.2117 39.7147C27.1543 41.2043 28.441 42.4443 29.9601 43.3027C30.0284 43.3476 30.0994 43.3841 30.1705 43.4177C30.0612 43.4402 29.9492 43.4598 29.8372 43.471C29.5258 43.5131 29.2034 43.5355 28.881 43.5355C27.2636 43.5355 25.7582 43.0166 24.526 42.1329C24.5178 42.2255 24.5177 42.3209 24.5177 42.4162C24.5177 45.5077 25.78 48.2962 27.8018 50.2627C29.3754 51.8056 31.4109 52.8408 33.6731 53.1437C32.8589 53.4495 31.9791 53.615 31.0639 53.615C30.0721 53.615 29.1213 53.4215 28.2525 53.0652C29.5475 57.3882 33.4081 60.5582 38.009 60.6984C35.1977 63.6973 31.2496 65.56 26.881 65.56C24.1653 65.56 21.6135 64.8391 19.4005 63.5767C24.7199 68.3036 31.6567 71.1594 39.2438 71.1594C56.0107 71.1594 69.6004 57.2058 69.6004 39.9896C69.6004 39.0414 69.5593 38.1045 69.4774 37.1787C72.2505 36.0538 74.4499 33.7562 75.4908 30.8752V30.8724Z" fill="white"/>
</svg>
