<svg width="96" height="98" viewBox="0 0 96 98" fill="none" xmlns="http://www.w3.org/2000/svg">
<path d="M95.3083 48.7198C95.3083 73.3252 77.5441 93.6665 54.4687 96.9683C52.3103 97.2769 50.1028 97.4368 47.8625 97.4368C45.2752 97.4368 42.737 97.2236 40.2617 96.814C17.6727 93.0801 0.416626 72.9661 0.416626 48.717C0.416626 21.8113 21.6588 0 47.8625 0C74.0662 0 95.3083 21.8113 95.3083 48.717V48.7198Z" fill="#E71F3D"/>
<path d="M78.0141 38.5336C77.6398 34.7969 76.8284 30.6703 73.8449 28.499C71.5308 26.8158 68.4927 26.7541 65.6568 26.7569C59.6598 26.7625 53.6628 26.7682 47.6658 26.7738C41.8983 26.7794 36.1309 26.785 30.3634 26.7906C27.9537 26.7906 25.6122 26.5998 23.3746 27.6686C21.4512 28.5888 19.9486 30.3365 19.047 32.2806C17.7902 34.9877 17.5252 38.0511 17.3749 41.0444C17.0963 46.4923 17.1263 51.957 17.4624 57.3993C17.7055 61.3744 18.3257 65.7647 21.3174 68.2979C23.9702 70.5422 27.7132 70.6516 31.1502 70.6544C42.0677 70.6628 52.9853 70.6712 63.9028 70.6824C65.3016 70.6824 66.7633 70.6572 68.1894 70.4973C70.9981 70.1859 73.6728 69.3611 75.476 67.2263C77.2956 65.0746 77.7628 62.0758 78.0415 59.2396C78.7136 52.361 78.7053 45.4094 78.0141 38.5336ZM41.3519 58.3671V39.0722L57.6271 48.7197L41.3519 58.3671Z" fill="white"/>
</svg>
