<svg width="408" height="61" viewBox="0 0 408 61" fill="none" xmlns="http://www.w3.org/2000/svg">
<path d="M69.9588 24.6392C69.8049 24.0118 69.5623 23.4614 69.2308 22.9879C68.8994 22.5026 68.4851 22.0942 67.9879 21.7628C67.5026 21.4195 66.9344 21.165 66.2834 20.9993C65.6442 20.8217 64.9399 20.733 64.1705 20.733C62.5133 20.733 61.0987 21.1295 59.9268 21.9226C58.7668 22.7157 57.879 23.858 57.2635 25.3494C56.6598 26.8409 56.358 28.6402 56.358 30.7472C56.358 32.8778 56.648 34.7008 57.228 36.2159C57.808 37.7311 58.6721 38.8911 59.8203 39.696C60.9685 40.5009 62.3949 40.9034 64.0994 40.9034C65.6027 40.9034 66.8516 40.6844 67.8459 40.2464C68.852 39.8085 69.6037 39.187 70.1009 38.3821C70.598 37.5772 70.8466 36.6302 70.8466 35.5412L72.5511 35.7188H64.2415V28.6875H80.3636V33.7301C80.3636 37.0445 79.6593 39.8795 78.2507 42.2351C76.8539 44.5788 74.9245 46.3781 72.4624 47.6328C70.0121 48.8757 67.2008 49.4972 64.0284 49.4972C60.4891 49.4972 57.3819 48.7455 54.7067 47.2422C52.0315 45.7389 49.9422 43.5964 48.4389 40.8146C46.9474 38.0329 46.2017 34.7244 46.2017 30.8892C46.2017 27.8826 46.6574 25.2192 47.5689 22.8991C48.4922 20.5791 49.7706 18.62 51.4041 17.022C53.0376 15.4122 54.9257 14.1989 57.0682 13.3821C59.2107 12.5535 61.5071 12.1392 63.9574 12.1392C66.1117 12.1392 68.1122 12.447 69.9588 13.0625C71.8172 13.6662 73.4567 14.5303 74.8771 15.6548C76.3094 16.7675 77.4635 18.0874 78.3395 19.6143C79.2154 21.1413 79.7481 22.8163 79.9375 24.6392H69.9588ZM84.9668 49V12.6364H94.839V41.0455H109.541V49H84.9668ZM147.343 30.8182C147.343 34.8665 146.555 38.2815 144.981 41.0632C143.407 43.8331 141.282 45.9342 138.607 47.3665C135.932 48.7869 132.949 49.4972 129.658 49.4972C126.343 49.4972 123.349 48.781 120.673 47.3487C118.01 45.9046 115.891 43.7976 114.317 41.0277C112.754 38.246 111.973 34.8428 111.973 30.8182C111.973 26.7699 112.754 23.3608 114.317 20.5909C115.891 17.8092 118.01 15.7081 120.673 14.2876C123.349 12.8553 126.343 12.1392 129.658 12.1392C132.949 12.1392 135.932 12.8553 138.607 14.2876C141.282 15.7081 143.407 17.8092 144.981 20.5909C146.555 23.3608 147.343 26.7699 147.343 30.8182ZM137.186 30.8182C137.186 28.6402 136.896 26.8054 136.316 25.3139C135.748 23.8106 134.902 22.6742 133.777 21.9048C132.664 21.1236 131.291 20.733 129.658 20.733C128.024 20.733 126.645 21.1236 125.521 21.9048C124.408 22.6742 123.562 23.8106 122.982 25.3139C122.414 26.8054 122.129 28.6402 122.129 30.8182C122.129 32.9962 122.414 34.8369 122.982 36.3402C123.562 37.8317 124.408 38.968 125.521 39.7493C126.645 40.5187 128.024 40.9034 129.658 40.9034C131.291 40.9034 132.664 40.5187 133.777 39.7493C134.902 38.968 135.748 37.8317 136.316 36.3402C136.896 34.8369 137.186 32.9962 137.186 30.8182ZM151.91 49V12.6364H167.677C170.447 12.6364 172.773 13.0092 174.655 13.755C176.549 14.5007 177.975 15.5542 178.934 16.9155C179.905 18.2768 180.39 19.8807 180.39 21.7273C180.39 23.0649 180.094 24.2841 179.502 25.3849C178.922 26.4858 178.106 27.4091 177.052 28.1548C175.999 28.8887 174.768 29.3977 173.359 29.6818V30.0369C174.922 30.0961 176.342 30.4927 177.62 31.2266C178.899 31.9486 179.917 32.9489 180.674 34.2273C181.432 35.4938 181.811 36.9853 181.811 38.7017C181.811 40.6903 181.29 42.46 180.248 44.0107C179.218 45.5613 177.751 46.7805 175.845 47.6683C173.939 48.5561 171.666 49 169.027 49H151.91ZM161.782 41.1165H166.399C168.056 41.1165 169.299 40.8087 170.127 40.1932C170.956 39.5658 171.37 38.6425 171.37 37.4233C171.37 36.571 171.175 35.849 170.784 35.2571C170.394 34.6652 169.837 34.2154 169.115 33.9077C168.405 33.5999 167.547 33.446 166.541 33.446H161.782V41.1165ZM161.782 27.3381H165.831C166.695 27.3381 167.458 27.2019 168.121 26.9297C168.784 26.6574 169.299 26.2668 169.666 25.7578C170.045 25.237 170.234 24.6037 170.234 23.858C170.234 22.7334 169.832 21.8752 169.027 21.2834C168.222 20.6797 167.204 20.3778 165.973 20.3778H161.782V27.3381ZM194.755 49H184.101L196.104 12.6364H209.598L221.601 49H210.948L202.993 22.6506H202.709L194.755 49ZM192.766 34.6534H212.794V42.0398H192.766V34.6534ZM225.104 49V12.6364H234.976V41.0455H249.677V49H225.104ZM285.131 12.6364V49H276.892L263.753 29.8949H263.54V49H253.668V12.6364H262.049L274.975 31.6705H275.259V12.6364H285.131ZM289.801 49V12.6364H316.008V20.5909H299.673V26.8409H314.659V34.7955H299.673V41.0455H315.937V49H289.801ZM330.137 49L319.413 12.6364H330.421L335.393 35.0085H335.677L341.572 12.6364H350.237L356.132 35.0795H356.416L361.387 12.6364H372.396L361.671 49H352.225L346.046 28.6875H345.762L339.583 49H330.137ZM394.608 24C394.513 22.8163 394.07 21.893 393.276 21.2301C392.495 20.5672 391.306 20.2358 389.708 20.2358C388.69 20.2358 387.855 20.3601 387.204 20.6087C386.565 20.8454 386.091 21.1709 385.784 21.5852C385.476 21.9995 385.316 22.473 385.304 23.0057C385.28 23.4437 385.357 23.8402 385.535 24.1953C385.724 24.5386 386.02 24.8523 386.423 25.1364C386.825 25.4086 387.34 25.6572 387.968 25.8821C388.595 26.107 389.341 26.3082 390.205 26.4858L393.188 27.125C395.2 27.5511 396.922 28.1134 398.355 28.8118C399.787 29.5102 400.959 30.3329 401.87 31.2798C402.782 32.215 403.45 33.2685 403.877 34.4403C404.315 35.6122 404.539 36.8906 404.551 38.2756C404.539 40.6667 403.942 42.6908 402.758 44.348C401.574 46.0052 399.882 47.2659 397.68 48.13C395.49 48.9941 392.856 49.4261 389.779 49.4261C386.618 49.4261 383.86 48.9586 381.504 48.0234C379.161 47.0883 377.338 45.6501 376.036 43.7088C374.745 41.7557 374.094 39.258 374.083 36.2159H383.458C383.517 37.3286 383.795 38.2637 384.292 39.0213C384.789 39.7789 385.488 40.353 386.387 40.7436C387.299 41.1342 388.382 41.3295 389.637 41.3295C390.69 41.3295 391.572 41.1993 392.282 40.9389C392.992 40.6785 393.531 40.3175 393.898 39.8558C394.265 39.3942 394.454 38.8674 394.466 38.2756C394.454 37.7192 394.271 37.2339 393.916 36.8196C393.572 36.3935 393.004 36.0147 392.211 35.6832C391.418 35.34 390.347 35.0204 388.997 34.7244L385.375 33.9432C382.155 33.2448 379.616 32.0788 377.758 30.4453C375.911 28.8 374.994 26.5568 375.006 23.7159C374.994 21.4077 375.61 19.3894 376.852 17.6612C378.107 15.9212 379.841 14.5658 382.055 13.5952C384.28 12.6245 386.831 12.1392 389.708 12.1392C392.643 12.1392 395.182 12.6304 397.325 13.6129C399.467 14.5954 401.119 15.9804 402.279 17.7678C403.45 19.5433 404.042 21.6207 404.054 24H394.608Z" fill="white"/>
<path d="M18.5 49L42 11L31.5 49L18.5 49Z" fill="white"/>
<path d="M42 11L18.5 49L29 11H42Z" fill="white"/>
<path d="M0 49L23.5 11L13 49L0 49Z" fill="white"/>
<path d="M23.5 11L0 49L10.5 11H23.5Z" fill="white"/>
</svg>
